<svg width="44" height="44" viewBox="0 0 44 44" fill="none" xmlns="http://www.w3.org/2000/svg">
<circle opacity="0.1" cx="22" cy="22" r="22" fill="#111827"/>
<path d="M31.2145 18.3697C31.1717 17.3992 31.0147 16.732 30.7899 16.1539C30.558 15.5402 30.2012 14.9908 29.7338 14.5341C29.277 14.0703 28.724 13.7098 28.1174 13.4816C27.536 13.2567 26.8723 13.0998 25.9018 13.057C24.9241 13.0106 24.6137 12.9999 22.134 12.9999C19.6543 12.9999 19.3439 13.0106 18.3698 13.0534C17.3993 13.0962 16.7321 13.2533 16.1542 13.4779C15.5404 13.7098 14.991 14.0666 14.5342 14.5341C14.0704 14.9908 13.7101 15.5439 13.4817 16.1504C13.2569 16.732 13.0999 17.3956 13.0571 18.366C13.0107 19.3437 13 19.6541 13 22.1339C13 24.6136 13.0107 24.924 13.0535 25.8981C13.0963 26.8685 13.2534 27.5357 13.4782 28.1138C13.7101 28.7275 14.0704 29.2769 14.5342 29.7336C14.991 30.1975 15.544 30.5579 16.1505 30.7862C16.7321 31.011 17.3957 31.1679 18.3663 31.2107C19.3402 31.2536 19.6508 31.2642 22.1305 31.2642C24.6102 31.2642 24.9206 31.2536 25.8947 31.2107C26.8652 31.1679 27.5323 31.011 28.1103 30.7862C29.3378 30.3116 30.3083 29.3412 30.7828 28.1138C31.0075 27.5322 31.1646 26.8685 31.2074 25.8981C31.2501 24.924 31.2609 24.6136 31.2609 22.1339C31.2609 19.6541 31.2572 19.3437 31.2145 18.3697ZM29.5697 25.8267C29.5304 26.7187 29.3806 27.2004 29.2557 27.5215C28.9488 28.3172 28.3173 28.9487 27.5216 29.2556C27.2005 29.3805 26.7153 29.5303 25.8268 29.5695C24.8635 29.6124 24.5746 29.623 22.1376 29.623C19.7007 29.623 19.4081 29.6124 18.4483 29.5695C17.5563 29.5303 17.0746 29.3805 16.7535 29.2556C16.3575 29.1092 15.9971 28.8773 15.7045 28.574C15.4013 28.2779 15.1694 27.9211 15.023 27.5251C14.8981 27.204 14.7483 26.7187 14.7091 25.8303C14.6662 24.867 14.6556 24.5779 14.6556 22.141C14.6556 19.704 14.6662 19.4115 14.7091 18.4518C14.7483 17.5598 14.8981 17.0781 15.023 16.757C15.1694 16.3609 15.4013 16.0006 15.7082 15.7079C16.0042 15.4046 16.361 15.1727 16.7571 15.0265C17.0782 14.9016 17.5635 14.7518 18.4519 14.7125C19.4152 14.6697 19.7043 14.659 22.1411 14.659C24.5817 14.659 24.8706 14.6697 25.8305 14.7125C26.7224 14.7518 27.2041 14.9016 27.5252 15.0265C27.9212 15.1727 28.2816 15.4046 28.5742 15.7079C28.8774 16.0041 29.1094 16.3609 29.2557 16.757C29.3806 17.0781 29.5304 17.5632 29.5697 18.4518C29.6125 19.4151 29.6232 19.704 29.6232 22.141C29.6232 24.5779 29.6125 24.8634 29.5697 25.8267Z" fill="#111827"/>
<path d="M22.1338 17.4417C19.5435 17.4417 17.4419 19.5431 17.4419 22.1335C17.4419 24.7239 19.5435 26.8254 22.1338 26.8254C24.7242 26.8254 26.8256 24.7239 26.8256 22.1335C26.8256 19.5431 24.7242 17.4417 22.1338 17.4417ZM22.1338 25.177C20.4533 25.177 19.0903 23.8141 19.0903 22.1335C19.0903 20.453 20.4533 19.09 22.1338 19.09C23.8143 19.09 25.1773 20.453 25.1773 22.1335C25.1773 23.8141 23.8143 25.177 22.1338 25.177Z" fill="#111827"/>
<path d="M28.1049 17.2559C28.1049 17.8607 27.6146 18.351 27.0097 18.351C26.4049 18.351 25.9146 17.8607 25.9146 17.2559C25.9146 16.651 26.4049 16.1608 27.0097 16.1608C27.6146 16.1608 28.1049 16.651 28.1049 17.2559Z" fill="#111827"/>
</svg>
