<svg width="44" height="44" viewBox="0 0 44 44" fill="none" xmlns="http://www.w3.org/2000/svg">
<circle opacity="0.1" cx="21.9998" cy="22" r="22" fill="#111827"/>
<path d="M29.945 17.9349C29.9582 18.108 29.9582 18.2801 29.9582 18.4522C29.9582 23.7197 25.8335 29.7894 18.2953 29.7894C15.9729 29.7894 13.8153 29.1355 11.9998 27.9999C12.3295 28.0365 12.647 28.0494 12.99 28.0494C14.9063 28.0494 16.67 27.4202 18.0795 26.347C16.2772 26.3104 14.7669 25.1629 14.2458 23.5842C14.4992 23.6208 14.7537 23.6455 15.0203 23.6455C15.3877 23.6455 15.7571 23.596 16.1001 23.51C14.2204 23.14 12.8129 21.5365 12.8129 19.5997V19.5502C13.3594 19.846 13.9934 20.031 14.6651 20.0557C13.5609 19.3415 12.8373 18.1199 12.8373 16.738C12.8373 15.998 13.0399 15.3195 13.395 14.7279C15.4131 17.1445 18.4469 18.7243 21.8481 18.8974C21.785 18.6006 21.7463 18.293 21.7463 17.9843C21.7463 15.7883 23.5741 13.9999 25.8457 13.9999C27.0262 13.9999 28.0918 14.4806 28.8408 15.2581C29.7669 15.085 30.6543 14.7517 31.4421 14.2956C31.1378 15.2205 30.4895 15.998 29.6397 16.4917C30.4651 16.4046 31.265 16.183 31.9998 15.8744C31.4421 16.6638 30.7449 17.3671 29.945 17.9349Z" fill="#111827"/>
</svg>
